<svg xmlns="http://www.w3.org/2000/svg" width="285" height="295" viewBox="0 0 285 295">
  <g id="Bubble_Graph" data-name="Bubble Graph" transform="translate(-1364 -250)">
    <g id="Ellipse_13" data-name="Ellipse 13" transform="translate(1364 250)" fill="#84d3f3" stroke="#707070" stroke-width="1">
      <circle cx="18.5" cy="18.5" r="18.5" stroke="none"/>
      <circle cx="18.5" cy="18.5" r="18" fill="none"/>
    </g>
    <g id="Ellipse_13-2" data-name="Ellipse 13" transform="translate(1426 250)" fill="#84d3f3" stroke="#707070" stroke-width="1">
      <circle cx="18.5" cy="18.5" r="18.5" stroke="none"/>
      <circle cx="18.5" cy="18.5" r="18" fill="none"/>
    </g>
    <g id="Ellipse_13-3" data-name="Ellipse 13" transform="translate(1488 250)" fill="#84d3f3" stroke="#707070" stroke-width="1">
      <circle cx="18.5" cy="18.5" r="18.5" stroke="none"/>
      <circle cx="18.5" cy="18.5" r="18" fill="none"/>
    </g>
    <g id="Ellipse_13-4" data-name="Ellipse 13" transform="translate(1550 250)" fill="#84d3f3" stroke="#707070" stroke-width="1">
      <circle cx="18.5" cy="18.5" r="18.5" stroke="none"/>
      <circle cx="18.5" cy="18.5" r="18" fill="none"/>
    </g>
    <g id="Ellipse_13-5" data-name="Ellipse 13" transform="translate(1612 250)" fill="#84d3f3" stroke="#707070" stroke-width="1">
      <circle cx="18.5" cy="18.5" r="18.5" stroke="none"/>
      <circle cx="18.5" cy="18.5" r="18" fill="none"/>
    </g>
    <g id="Ellipse_13-6" data-name="Ellipse 13" transform="translate(1364 336)" fill="#84d3f3" stroke="#707070" stroke-width="1">
      <circle cx="18.5" cy="18.5" r="18.5" stroke="none"/>
      <circle cx="18.5" cy="18.5" r="18" fill="none"/>
    </g>
    <g id="Ellipse_13-7" data-name="Ellipse 13" transform="translate(1426 336)" fill="#84d3f3" stroke="#707070" stroke-width="1">
      <circle cx="18.5" cy="18.5" r="18.5" stroke="none"/>
      <circle cx="18.5" cy="18.5" r="18" fill="none"/>
    </g>
    <g id="Ellipse_13-8" data-name="Ellipse 13" transform="translate(1488 336)" fill="#84d3f3" stroke="#707070" stroke-width="1">
      <circle cx="18.5" cy="18.5" r="18.5" stroke="none"/>
      <circle cx="18.5" cy="18.5" r="18" fill="none"/>
    </g>
    <g id="Ellipse_13-9" data-name="Ellipse 13" transform="translate(1550 336)" fill="#84d3f3" stroke="#707070" stroke-width="1">
      <circle cx="18.5" cy="18.5" r="18.5" stroke="none"/>
      <circle cx="18.5" cy="18.5" r="18" fill="none"/>
    </g>
    <g id="Ellipse_13-10" data-name="Ellipse 13" transform="translate(1612 336)" fill="#84d3f3" stroke="#707070" stroke-width="1">
      <circle cx="18.5" cy="18.5" r="18.5" stroke="none"/>
      <circle cx="18.5" cy="18.5" r="18" fill="none"/>
    </g>
    <g id="Ellipse_13-11" data-name="Ellipse 13" transform="translate(1364 422)" fill="#84d3f3" stroke="#707070" stroke-width="1">
      <circle cx="18.5" cy="18.5" r="18.5" stroke="none"/>
      <circle cx="18.5" cy="18.5" r="18" fill="none"/>
    </g>
    <g id="Ellipse_13-12" data-name="Ellipse 13" transform="translate(1426 422)" fill="#84d3f3" stroke="#707070" stroke-width="1">
      <circle cx="18.5" cy="18.5" r="18.5" stroke="none"/>
      <circle cx="18.5" cy="18.5" r="18" fill="none"/>
    </g>
    <g id="Ellipse_13-13" data-name="Ellipse 13" transform="translate(1488 422)" fill="#84d3f3" stroke="#707070" stroke-width="1">
      <circle cx="18.5" cy="18.5" r="18.5" stroke="none"/>
      <circle cx="18.5" cy="18.5" r="18" fill="none"/>
    </g>
    <g id="Ellipse_13-14" data-name="Ellipse 13" transform="translate(1550 422)" fill="#fff" stroke="#707070" stroke-width="1">
      <circle cx="18.5" cy="18.5" r="18.5" stroke="none"/>
      <circle cx="18.5" cy="18.5" r="18" fill="none"/>
    </g>
    <g id="Ellipse_13-15" data-name="Ellipse 13" transform="translate(1612 422)" fill="#fff" stroke="#707070" stroke-width="1">
      <circle cx="18.5" cy="18.5" r="18.5" stroke="none"/>
      <circle cx="18.5" cy="18.5" r="18" fill="none"/>
    </g>
    <g id="Ellipse_13-16" data-name="Ellipse 13" transform="translate(1364 508)" fill="#84d3f3" stroke="#707070" stroke-width="1">
      <circle cx="18.5" cy="18.5" r="18.5" stroke="none"/>
      <circle cx="18.5" cy="18.5" r="18" fill="none"/>
    </g>
    <g id="Ellipse_13-17" data-name="Ellipse 13" transform="translate(1426 508)" fill="#84d3f3" stroke="#707070" stroke-width="1">
      <circle cx="18.5" cy="18.5" r="18.5" stroke="none"/>
      <circle cx="18.5" cy="18.5" r="18" fill="none"/>
    </g>
    <g id="Ellipse_13-18" data-name="Ellipse 13" transform="translate(1488 508)" fill="#84d3f3" stroke="#707070" stroke-width="1">
      <circle cx="18.5" cy="18.5" r="18.5" stroke="none"/>
      <circle cx="18.5" cy="18.5" r="18" fill="none"/>
    </g>
    <g id="Ellipse_13-19" data-name="Ellipse 13" transform="translate(1550 508)" fill="#84d3f3" stroke="#707070" stroke-width="1">
      <circle cx="18.5" cy="18.5" r="18.5" stroke="none"/>
      <circle cx="18.5" cy="18.5" r="18" fill="none"/>
    </g>
    <g id="Ellipse_13-20" data-name="Ellipse 13" transform="translate(1612 508)" fill="#fff" stroke="#707070" stroke-width="1">
      <circle cx="18.5" cy="18.5" r="18.5" stroke="none"/>
      <circle cx="18.5" cy="18.5" r="18" fill="none"/>
    </g>
  </g>
</svg>
