<svg xmlns="http://www.w3.org/2000/svg" width="1432.712" height="410.227" viewBox="0 0 1432.712 410.227">
  <g id="BlockGroup2" transform="translate(-237.791 -1774.099)">
    <g id="Code_Block_2" data-name="Code Block 2" transform="translate(-525.41 306.536)">
      <g id="Input" transform="translate(763.201 1514.023)">
        <path id="InputBox" d="M16.352,0H175.273c9.031,0,16.352,7.77,16.352,17.354V202.288c0,9.585-7.321,17.354-16.352,17.354H16.352C7.321,219.642,0,211.872,0,202.288V17.354C0,7.77,7.321,0,16.352,0Z" transform="translate(0 0)" fill="#556b6d" opacity="0.85"/>
        <text id="push_24_push_16_add" data-name="push 24
push 16
add" transform="translate(32.036 65.512)" fill="#fff" font-size="20" font-family="RobotoSlab-Light, Roboto Slab" font-weight="300" letter-spacing="-0.089em"><tspan x="0" y="21">push 24</tspan><tspan x="0" y="58">push 16</tspan><tspan x="0" y="95">add</tspan></text>
        <text id="Input_:" data-name="Input :" transform="translate(30.478 4.105)" fill="#fff" font-size="29" font-family="RobotoSlab-Light, Roboto Slab" font-weight="300" letter-spacing="-0.089em"><tspan x="0" y="30">Input :</tspan></text>
      </g>
      <g id="Block" transform="translate(789.477 1514)">
        <path id="Stack_Box" data-name="Stack Box" d="M16.4,0H175.811c9.059,0,16.4,7.77,16.4,17.354V202.288c0,9.585-7.344,17.354-16.4,17.354H16.4c-9.059,0-16.4-7.77-16.4-17.354V17.354C0,7.77,7.344,0,16.4,0Z" transform="translate(141.223 0)" fill="#578184" opacity="0.85"/>
        <text id="_-_-_-_-_-_-_-_-_-_-_-_-_-_-_-" data-name="-  -  -  -  -  -  -  -  -  -  -  -  -  -  -" transform="translate(0 168.405)" fill="#fff" font-size="34" font-family="RobotoSlab-Light, Roboto Slab" font-weight="300" letter-spacing="-0.089em"><tspan x="0" y="36" xml:space="preserve">-  -  -  -  -  -  -  -  -  -  -  -  -  -  -</tspan></text>
        <text id="_-_-_-_-_-_-_-_-_-_-_-_-_-_-_--2" data-name="-  -  -  -  -  -  -  -  -  -  -  -  -  -  -" transform="translate(0 23.163)" fill="#fff" font-size="34" font-family="RobotoSlab-Light, Roboto Slab" font-weight="300" letter-spacing="-0.089em"><tspan x="0" y="36" xml:space="preserve">-  -  -  -  -  -  -  -  -  -  -  -  -  -  -</tspan></text>
        <text id="_Int_40" data-name="

Int 40" transform="translate(184.917 66.535)" fill="#fff" font-size="20" font-family="RobotoSlab-Light, Roboto Slab" font-weight="300" letter-spacing="-0.089em"><tspan x="0" y="21"></tspan><tspan x="0" y="58"></tspan><tspan x="0" y="95">Int 40</tspan></text>
        <text id="Stack_:" data-name="Stack :" transform="translate(182.158 6.151)" fill="#fff" font-size="28" font-family="RobotoSlab-Light, Roboto Slab" font-weight="300" letter-spacing="-0.089em"><tspan x="0" y="29">Stack :</tspan></text>
      </g>
    </g>
    <g id="Code_Block_3" data-name="Code Block 3" transform="translate(40.59 260.099)">
      <g id="Input-2" data-name="Input" transform="translate(763.201 1514.046)">
        <path id="InputBox-2" data-name="InputBox" d="M16.352,0H175.273c9.031,0,16.352,14.51,16.352,32.409V377.771c0,17.9-7.321,32.409-16.352,32.409H16.352C7.321,410.18,0,395.67,0,377.771V32.409C0,14.51,7.321,0,16.352,0Z" transform="translate(0 0)" fill="#556b6d" opacity="0.85"/>
        <text id="fun_add4_x_push_x_push_4_add_return_funEnd_push_z_push_60_bind" data-name="fun add4 x
push x
push 4
add
return
funEnd
push z
push ~60
bind" transform="translate(30.036 54.622)" fill="#fff" font-size="20" font-family="RobotoSlab-Light, Roboto Slab" font-weight="300" letter-spacing="-0.089em"><tspan x="0" y="21">fun add4 x</tspan><tspan x="0" y="58">push x</tspan><tspan x="0" y="95">push 4</tspan><tspan x="0" y="132">add</tspan><tspan x="0" y="169">return</tspan><tspan x="0" y="206">funEnd</tspan><tspan x="0" y="243">push z</tspan><tspan x="0" y="280">push ~60</tspan><tspan x="0" y="317">bind</tspan></text>
        <text id="Input_:-2" data-name="Input :" transform="translate(30.478 6.885)" fill="#fff" font-size="29" font-family="RobotoSlab-Light, Roboto Slab" font-weight="300" letter-spacing="-0.089em"><tspan x="0" y="30">Input :</tspan></text>
      </g>
      <g id="Block-2" data-name="Block" transform="translate(789.477 1514)">
        <path id="Stack_Box-2" data-name="Stack Box" d="M16.4,0H175.811c9.059,0,16.4,14.51,16.4,32.409V377.771c0,17.9-7.344,32.409-16.4,32.409H16.4C7.344,410.18,0,395.67,0,377.771V32.409C0,14.51,7.344,0,16.4,0Z" transform="translate(141.223 0)" fill="#578184" opacity="0.85"/>
        <text id="_-_-_-_-_-_-_-_-_-_-_-_-_-_-_--3" data-name="-  -  -  -  -  -  -  -  -  -  -  -  -  -  -" transform="translate(0 359.517)" fill="#fff" font-size="34" font-family="RobotoSlab-Light, Roboto Slab" font-weight="300" letter-spacing="-0.089em"><tspan x="0" y="36" xml:space="preserve">-  -  -  -  -  -  -  -  -  -  -  -  -  -  -</tspan></text>
        <text id="_-_-_-_-_-_-_-_-_-_-_-_-_-_-_--4" data-name="-  -  -  -  -  -  -  -  -  -  -  -  -  -  -" transform="translate(0 22.842)" fill="#fff" font-size="34" font-family="RobotoSlab-Light, Roboto Slab" font-weight="300" letter-spacing="-0.089em"><tspan x="0" y="36" xml:space="preserve">-  -  -  -  -  -  -  -  -  -  -  -  -  -  -</tspan></text>
        <text id="_-_-_-_-_-_-_-" data-name="-  -  -  -  -  -  -" transform="translate(165 129.787)" fill="#fff" font-size="34" font-family="RobotoSlab-Light, Roboto Slab" font-weight="300" letter-spacing="-0.089em"><tspan x="0" y="36" xml:space="preserve">-  -  -  -  -  -  -</tspan></text>
        <text id="_-_-_-_-_-_-_--2" data-name="-  -  -  -  -  -  -" transform="translate(165 75.834)" fill="#fff" font-size="34" font-family="RobotoSlab-Light, Roboto Slab" font-weight="300" letter-spacing="-0.089em"><tspan x="0" y="36" xml:space="preserve">-  -  -  -  -  -  -</tspan></text>
        <text id="Bindings_:" data-name="Bindings :" transform="translate(184.158 9.147)" fill="#fff" font-size="28" font-family="RobotoSlab-Light, Roboto Slab" font-weight="300" letter-spacing="-0.089em"><tspan x="0" y="29">Bindings :</tspan></text>
        <text id="Functions:" transform="translate(184.158 110.591)" fill="#fff" font-size="26" font-family="RobotoSlab-Light, Roboto Slab" font-weight="300" letter-spacing="-0.089em"><tspan x="0" y="27">Functions:</tspan></text>
        <text id="z_:_60_" data-name="z : ~60
" transform="translate(183.761 54.627)" fill="#fff" font-size="20" font-family="RobotoSlab-Light, Roboto Slab" font-weight="300" letter-spacing="-0.089em"><tspan x="0" y="21">z : ~60</tspan></text>
        <text id="fun_add4_x_:_push_Name_x_push_Int_4_add_return_funEnd" data-name="fun add4(x) :
    push Name x
    push Int 4
    add
    return
    funEnd" transform="translate(183.761 164.032)" fill="#fff" font-size="20" font-family="RobotoSlab-Light, Roboto Slab" font-weight="300" letter-spacing="-0.089em"><tspan x="0" y="21">fun add4(x) :</tspan><tspan x="0" y="58" xml:space="preserve">    push Name x</tspan><tspan x="0" y="95" xml:space="preserve">    push Int 4</tspan><tspan x="0" y="132" xml:space="preserve">    add</tspan><tspan x="0" y="169" xml:space="preserve">    return</tspan><tspan x="0" y="206" xml:space="preserve">    funEnd</tspan></text>
      </g>
    </g>
    <g id="Code_Block_4" data-name="Code Block 4" transform="translate(547.59 306.536)">
      <g id="Input-3" data-name="Input" transform="translate(763.201 1514.025)">
        <path id="InputBox-3" data-name="InputBox" d="M16.352,0H175.273c9.031,0,16.352,8.516,16.352,19.021V221.713c0,10.5-7.321,19.021-16.352,19.021H16.352C7.321,240.734,0,232.218,0,221.713V19.021C0,8.516,7.321,0,16.352,0Z" transform="translate(0 0)" fill="#556b6d" opacity="0.85"/>
        <text id=":true:_push_a_push_b_if" data-name=":true:
push a
push b
if" transform="translate(30.036 58.803)" fill="#fff" font-size="20" font-family="RobotoSlab-Light, Roboto Slab" font-weight="300" letter-spacing="-0.089em"><tspan x="0" y="21">:true:</tspan><tspan x="0" y="58">push a</tspan><tspan x="0" y="95">push b</tspan><tspan x="0" y="132">if</tspan></text>
        <text id="Input_:-3" data-name="Input :" transform="translate(30.478 4.5)" fill="#fff" font-size="29" font-family="RobotoSlab-Light, Roboto Slab" font-weight="300" letter-spacing="-0.089em"><tspan x="0" y="30">Input :</tspan></text>
      </g>
      <g id="Block-3" data-name="Block" transform="translate(789.477 1514)">
        <path id="Stack_Box-3" data-name="Stack Box" d="M16.4,0H175.811c9.059,0,16.4,8.516,16.4,19.021V221.713c0,10.5-7.344,19.021-16.4,19.021H16.4c-9.059,0-16.4-8.516-16.4-19.021V19.021C0,8.516,7.344,0,16.4,0Z" transform="translate(141.223 0)" fill="#578184" opacity="0.85"/>
        <text id="_-_-_-_-_-_-_-_-_-_-_-_-_-_-_--5" data-name="-  -  -  -  -  -  -  -  -  -  -  -  -  -  -" transform="translate(0 190.577)" fill="#fff" font-size="34" font-family="RobotoSlab-Light, Roboto Slab" font-weight="300" letter-spacing="-0.089em"><tspan x="0" y="36" xml:space="preserve">-  -  -  -  -  -  -  -  -  -  -  -  -  -  -</tspan></text>
        <text id="_-_-_-_-_-_-_-_-_-_-_-_-_-_-_--6" data-name="-  -  -  -  -  -  -  -  -  -  -  -  -  -  -" transform="translate(0 29.387)" fill="#fff" font-size="34" font-family="RobotoSlab-Light, Roboto Slab" font-weight="300" letter-spacing="-0.089em"><tspan x="0" y="36" xml:space="preserve">-  -  -  -  -  -  -  -  -  -  -  -  -  -  -</tspan></text>
        <text id="Name_b" data-name="Name b" transform="translate(181.761 169.828)" fill="#fff" font-size="20" font-family="RobotoSlab-Light, Roboto Slab" font-weight="300" letter-spacing="-0.089em"><tspan x="0" y="21">Name b</tspan></text>
        <text id="Stack_:-2" data-name="Stack :" transform="translate(182.158 6.742)" fill="#fff" font-size="28" font-family="RobotoSlab-Light, Roboto Slab" font-weight="300" letter-spacing="-0.089em"><tspan x="0" y="29">Stack :</tspan></text>
      </g>
    </g>
  </g>
</svg>
