<svg xmlns="http://www.w3.org/2000/svg" xmlns:xlink="http://www.w3.org/1999/xlink" width="1920" height="2039" viewBox="0 0 1920 2039">
  <defs>
    <linearGradient id="linear-gradient" x1="0.5" y1="0.916" x2="0.5" y2="1" gradientUnits="objectBoundingBox">
      <stop offset="0" stop-color="#b9d2da"/>
      <stop offset="1" stop-color="#fff"/>
    </linearGradient>
    <linearGradient id="linear-gradient-2" y1="0.084" y2="0" xlink:href="#linear-gradient"/>
    <clipPath id="clip-path">
      <rect width="53" height="2029" fill="none"/>
    </clipPath>
    <linearGradient id="linear-gradient-3" x1="1" y1="0.034" x2="1" y2="0.01" gradientUnits="objectBoundingBox">
      <stop offset="0"/>
      <stop offset="1" stop-color="#fff"/>
    </linearGradient>
    <linearGradient id="linear-gradient-4" y1="0.459" y2="0.91" xlink:href="#linear-gradient-3"/>
  </defs>
  <g id="CodeBackground" transform="translate(-19 -353)">
    <g id="Code_Page" data-name="Code Page">
      <rect id="Rectangle_60" data-name="Rectangle 60" width="1920" height="847" transform="translate(19 1545)" fill="url(#linear-gradient)"/>
      <rect id="Rectangle_57" data-name="Rectangle 57" width="1920" height="1257" transform="translate(19 353)" fill="url(#linear-gradient-2)"/>
    </g>
    <g id="Numbers" transform="translate(29 353)" clip-path="url(#clip-path)">
      <g transform="translate(-10 -1100)">
        <text id="_1" data-name="1" transform="translate(10 1100)" fill="#fff" font-size="35" font-family="RobotoSlab-Light, Roboto Slab" font-weight="300" letter-spacing="-0.087em"><tspan x="19.399" y="37">1</tspan></text>
      </g>
      <g transform="translate(-10 -1040)">
        <text id="_2" data-name="2" transform="translate(10 1100)" fill="#fff" font-size="35" font-family="RobotoSlab-Light, Roboto Slab" font-weight="300" letter-spacing="-0.087em"><tspan x="16.964" y="37">2</tspan></text>
      </g>
      <g transform="translate(-10 -980)">
        <text id="_3" data-name="3" transform="translate(10 1100)" fill="#fff" font-size="35" font-family="RobotoSlab-Light, Roboto Slab" font-weight="300" letter-spacing="-0.087em"><tspan x="17.083" y="37">3</tspan></text>
      </g>
      <g transform="translate(-10 -920)">
        <text id="_4" data-name="4" transform="translate(10 1100)" fill="#fff" font-size="35" font-family="RobotoSlab-Light, Roboto Slab" font-weight="300" letter-spacing="-0.087em"><tspan x="16.434" y="37">4</tspan></text>
      </g>
      <g transform="translate(-10 -860)">
        <text id="_5" data-name="5" transform="translate(10 1100)" fill="#fff" font-size="35" font-family="RobotoSlab-Light, Roboto Slab" font-weight="300" letter-spacing="-0.087em"><tspan x="17.357" y="37">5</tspan></text>
      </g>
      <g transform="translate(-10 -800)">
        <text id="_6" data-name="6" transform="translate(10 1100)" fill="#fff" font-size="35" font-family="RobotoSlab-Light, Roboto Slab" font-weight="300" letter-spacing="-0.087em"><tspan x="16.896" y="37">6</tspan></text>
      </g>
      <g transform="translate(-10 -740)">
        <text id="_7" data-name="7" transform="translate(10 1100)" fill="#fff" font-size="35" font-family="RobotoSlab-Light, Roboto Slab" font-weight="300" letter-spacing="-0.087em"><tspan x="16.972" y="37">7</tspan></text>
      </g>
      <g transform="translate(-10 -680)">
        <text id="_8" data-name="8" transform="translate(10 1100)" fill="#fff" font-size="35" font-family="RobotoSlab-Light, Roboto Slab" font-weight="300" letter-spacing="-0.087em"><tspan x="16.87" y="37">8</tspan></text>
      </g>
      <g transform="translate(-10 -620)">
        <text id="_9" data-name="9" transform="translate(10 1100)" fill="#fff" font-size="35" font-family="RobotoSlab-Light, Roboto Slab" font-weight="300" letter-spacing="-0.087em"><tspan x="16.776" y="37">9</tspan></text>
      </g>
      <g transform="translate(-10 -560)">
        <text id="_10" data-name="10" transform="translate(10 1100)" fill="#fff" font-size="35" font-family="RobotoSlab-Light, Roboto Slab" font-weight="300" letter-spacing="-0.087em"><tspan x="11.027" y="37">10</tspan></text>
      </g>
      <g transform="translate(-10 -500)">
        <text id="_11" data-name="11" transform="translate(10 1100)" fill="#fff" font-size="35" font-family="RobotoSlab-Light, Roboto Slab" font-weight="300" letter-spacing="-0.087em"><tspan x="13.821" y="37">11</tspan></text>
      </g>
      <g transform="translate(-10 -440)">
        <text id="_12" data-name="12" transform="translate(10 1100)" fill="#fff" font-size="35" font-family="RobotoSlab-Light, Roboto Slab" font-weight="300" letter-spacing="-0.087em"><tspan x="11.386" y="37">12</tspan></text>
      </g>
      <g transform="translate(-10 -380)">
        <text id="_13" data-name="13" transform="translate(10 1100)" fill="#fff" font-size="35" font-family="RobotoSlab-Light, Roboto Slab" font-weight="300" letter-spacing="-0.087em"><tspan x="11.505" y="37">13</tspan></text>
      </g>
      <g transform="translate(-10 -320)">
        <text id="_14" data-name="14" transform="translate(10 1100)" fill="#fff" font-size="35" font-family="RobotoSlab-Light, Roboto Slab" font-weight="300" letter-spacing="-0.087em"><tspan x="10.856" y="37">14</tspan></text>
      </g>
      <g transform="translate(-10 -260)">
        <text id="_15" data-name="15" transform="translate(10 1100)" fill="#fff" font-size="35" font-family="RobotoSlab-Light, Roboto Slab" font-weight="300" letter-spacing="-0.087em"><tspan x="11.779" y="37">15</tspan></text>
      </g>
      <g transform="translate(-10 -200)">
        <text id="_16" data-name="16" transform="translate(10 1100)" fill="#fff" font-size="35" font-family="RobotoSlab-Light, Roboto Slab" font-weight="300" letter-spacing="-0.087em"><tspan x="11.317" y="37">16</tspan></text>
      </g>
      <g transform="translate(-10 -140)">
        <text id="_17" data-name="17" transform="translate(10 1100)" fill="#fff" font-size="35" font-family="RobotoSlab-Light, Roboto Slab" font-weight="300" letter-spacing="-0.087em"><tspan x="11.394" y="37">17</tspan></text>
      </g>
      <g transform="translate(-10 -80)">
        <text id="_18" data-name="18" transform="translate(10 1100)" fill="#fff" font-size="35" font-family="RobotoSlab-Light, Roboto Slab" font-weight="300" letter-spacing="-0.087em"><tspan x="11.292" y="37">18</tspan></text>
      </g>
      <g transform="translate(-10 -20)">
        <text id="_19" data-name="19" transform="translate(10 1100)" fill="#fff" font-size="35" font-family="RobotoSlab-Light, Roboto Slab" font-weight="300" letter-spacing="-0.087em"><tspan x="11.198" y="37">19</tspan></text>
      </g>
      <g transform="translate(-10 40)">
        <text id="_20" data-name="20" transform="translate(10 1100)" fill="#fff" font-size="35" font-family="RobotoSlab-Light, Roboto Slab" font-weight="300" letter-spacing="-0.087em"><tspan x="8.591" y="37">20</tspan></text>
      </g>
      <g transform="translate(-10 100)">
        <text id="_21" data-name="21" transform="translate(10 1100)" fill="#fff" font-size="35" font-family="RobotoSlab-Light, Roboto Slab" font-weight="300" letter-spacing="-0.087em"><tspan x="11.386" y="37">21</tspan></text>
      </g>
      <g transform="translate(-10 160)">
        <text id="_22" data-name="22" transform="translate(10 1100)" fill="#fff" font-size="35" font-family="RobotoSlab-Light, Roboto Slab" font-weight="300" letter-spacing="-0.087em"><tspan x="8.95" y="37">22</tspan></text>
      </g>
      <g transform="translate(-10 220)">
        <text id="_23" data-name="23" transform="translate(10 1100)" fill="#fff" font-size="35" font-family="RobotoSlab-Light, Roboto Slab" font-weight="300" letter-spacing="-0.087em"><tspan x="9.07" y="37">23</tspan></text>
      </g>
      <g transform="translate(-10 280)">
        <text id="_24" data-name="24" transform="translate(10 1100)" fill="#fff" font-size="35" font-family="RobotoSlab-Light, Roboto Slab" font-weight="300" letter-spacing="-0.087em"><tspan x="8.42" y="37">24</tspan></text>
      </g>
      <g transform="translate(-10 340)">
        <text id="_25" data-name="25" transform="translate(10 1100)" fill="#fff" font-size="35" font-family="RobotoSlab-Light, Roboto Slab" font-weight="300" letter-spacing="-0.087em"><tspan x="9.343" y="37">25</tspan></text>
      </g>
      <g transform="translate(-10 400)">
        <text id="_26" data-name="26" transform="translate(10 1100)" fill="#fff" font-size="35" font-family="RobotoSlab-Light, Roboto Slab" font-weight="300" letter-spacing="-0.087em"><tspan x="8.882" y="37">26</tspan></text>
      </g>
      <g transform="translate(-10 460)">
        <text id="_27" data-name="27" transform="translate(10 1100)" fill="#fff" font-size="35" font-family="RobotoSlab-Light, Roboto Slab" font-weight="300" letter-spacing="-0.087em"><tspan x="8.959" y="37">27</tspan></text>
      </g>
      <g transform="translate(-10 520)">
        <text id="_28" data-name="28" transform="translate(10 1100)" fill="#fff" font-size="35" font-family="RobotoSlab-Light, Roboto Slab" font-weight="300" letter-spacing="-0.087em"><tspan x="8.856" y="37">28</tspan></text>
      </g>
      <g transform="translate(-10 580)">
        <text id="_29" data-name="29" transform="translate(10 1100)" fill="#fff" font-size="35" font-family="RobotoSlab-Light, Roboto Slab" font-weight="300" letter-spacing="-0.087em"><tspan x="8.762" y="37">29</tspan></text>
      </g>
      <g transform="translate(-10 640)">
        <text id="_30" data-name="30" transform="translate(10 1100)" fill="#fff" font-size="35" font-family="RobotoSlab-Light, Roboto Slab" font-weight="300" letter-spacing="-0.087em"><tspan x="8.711" y="37">30</tspan></text>
      </g>
      <g transform="translate(-10 700)">
        <text id="_31" data-name="31" transform="translate(10 1100)" fill="#fff" font-size="35" font-family="RobotoSlab-Light, Roboto Slab" font-weight="300" letter-spacing="-0.087em"><tspan x="11.505" y="37">31</tspan></text>
      </g>
      <g transform="translate(-10 760)">
        <text id="_32" data-name="32" transform="translate(10 1100)" fill="#fff" font-size="35" font-family="RobotoSlab-Light, Roboto Slab" font-weight="300" letter-spacing="-0.087em"><tspan x="9.07" y="37">32</tspan></text>
      </g>
      <g transform="translate(-10 820)">
        <text id="_33" data-name="33" transform="translate(10 1100)" fill="#fff" font-size="35" font-family="RobotoSlab-Light, Roboto Slab" font-weight="300" letter-spacing="-0.087em"><tspan x="9.189" y="37">33</tspan></text>
      </g>
      <g transform="translate(-10 880)">
        <text id="_34" data-name="34" transform="translate(10 1100)" fill="#fff" font-size="35" font-family="RobotoSlab-Light, Roboto Slab" font-weight="300" letter-spacing="-0.087em"><tspan x="8.54" y="37">34</tspan></text>
      </g>
    </g>
    <g id="Border">
      <path id="Border-2" data-name="Border" d="M4,0H7a4,4,0,0,1,4,4V1898a0,0,0,0,1,0,0H0a0,0,0,0,1,0,0V4A4,4,0,0,1,4,0Z" transform="translate(99 353)" opacity="0.12" fill="url(#linear-gradient-3)"/>
      <path id="Border2" d="M0,0H11a0,0,0,0,1,0,0V122a4,4,0,0,1-4,4H4a4,4,0,0,1-4-4V0A0,0,0,0,1,0,0Z" transform="translate(99 2251)" opacity="0.12" fill="url(#linear-gradient-4)"/>
    </g>
  </g>
</svg>
