<svg xmlns="http://www.w3.org/2000/svg" width="246.057" height="281.578" viewBox="0 0 246.057 281.578">
  <g id="Group_9" data-name="Group 9" transform="translate(-258.113 -127.158)">
    <path id="Path_64" data-name="Path 64" d="M382.441,198.744l16.52,83.527-81.3-25.3a18.8,18.8,0,0,0,18.343-21.405,18.818,18.818,0,0,0,23.2-20.852,18.8,18.8,0,0,0,23.232-15.975Z" transform="translate(105.209 126.465)" fill="#fcd0a0" fill-rule="evenodd"/>
    <path id="Path_65" data-name="Path 65" d="M361.191,216.873l6.6,33.371-32.481-10.1a38.012,38.012,0,0,1,25.882-23.267Z" transform="translate(136.38 158.492)" fill="#606062" fill-rule="evenodd"/>
    <g id="Group_8" data-name="Group 8" transform="translate(258.113 127.158)">
      <path id="Path_66" data-name="Path 66" d="M263.649,152.125h0a12.515,12.515,0,0,1,17.624.941L429.345,317.788a12.515,12.515,0,0,1-.941,17.623h0a12.512,12.512,0,0,1-17.621-.938L262.711,169.749A12.515,12.515,0,0,1,263.649,152.125Z" transform="translate(-255.615 -88.674)" fill="#99b5ab" fill-rule="evenodd"/>
      <path id="Path_67" data-name="Path 67" d="M262.235,133.687h0a12.515,12.515,0,0,1,17.624.938L455.045,329.509a12.517,12.517,0,0,1-.941,17.623h0a12.514,12.514,0,0,1-17.621-.938L261.3,151.311A12.514,12.514,0,0,1,262.235,133.687Z" transform="translate(-258.113 -121.25)" fill="#8ad5b9" fill-rule="evenodd"/>
      <path id="Path_68" data-name="Path 68" d="M274.39,130.342h0a12.517,12.517,0,0,1,17.624.938L456.772,314.563a12.517,12.517,0,0,1-.941,17.623h0a12.512,12.512,0,0,1-17.621-.938L273.452,147.965A12.515,12.515,0,0,1,274.39,130.342Z" transform="translate(-236.639 -127.158)" fill="#60be82" fill-rule="evenodd"/>
    </g>
  </g>
</svg>
