<svg xmlns="http://www.w3.org/2000/svg" width="351.062" height="245.892" viewBox="0 0 351.062 245.892">
  <g id="Logo" transform="translate(-347.681 -2418.639)">
    <g id="Group_12" data-name="Group 12" transform="translate(343.681 2463.204)">
      <path id="Path_73" data-name="Path 73" d="M896.3,2271.714c117.31.926,75.967-73.843,174.155-73.843" transform="translate(-821.874 -2197.871)" fill="none" stroke="#99c9ff" stroke-width="17" stroke-dasharray="17"/>
      <path id="Path_74" data-name="Path 74" d="M896.3,2197.881c117.31-1.031,75.967,82.268,174.155,82.268" transform="translate(-821.874 -2124.02)" fill="none" stroke="#99c9ff" stroke-width="20" stroke-dasharray="17"/>
      <g id="Path_75" data-name="Path 75" transform="translate(4 20.05)" fill="#fff">
        <path d="M 53.32017517089844 95.14035034179688 C 30.26045036315918 95.14035034179688 11.5 76.37989807128906 11.5 53.32017517089844 C 11.5 30.26045036315918 30.26045036315918 11.5 53.32017517089844 11.5 C 76.37989807128906 11.5 95.14035034179688 30.26045036315918 95.14035034179688 53.32017517089844 C 95.14035034179688 76.37989807128906 76.37989807128906 95.14035034179688 53.32017517089844 95.14035034179688 Z" stroke="none"/>
        <path d="M 53.32017517089844 23 C 36.60157012939453 23 23 36.60157012939453 23 53.32017517089844 C 23 70.03878784179688 36.60157012939453 83.64035034179688 53.32017517089844 83.64035034179688 C 70.03878784179688 83.64035034179688 83.64035034179688 70.03878784179688 83.64035034179688 53.32017517089844 C 83.64035034179688 36.60157012939453 70.03878784179688 23 53.32017517089844 23 M 53.32017517089844 0 C 82.76806640625 0 106.6403503417969 23.87224578857422 106.6403503417969 53.32017517089844 C 106.6403503417969 82.76806640625 82.76806640625 106.6403503417969 53.32017517089844 106.6403503417969 C 23.87224578857422 106.6403503417969 0 82.76806640625 0 53.32017517089844 C 0 23.87224578857422 23.87224578857422 0 53.32017517089844 0 Z" stroke="none" fill="#99c9ff"/>
      </g>
    </g>
    <g id="Group_14" data-name="Group 14" transform="translate(523.411 2418.639)">
      <g id="Path_69" data-name="Path 69" transform="translate(0 0)" fill="#fff">
        <path d="M 48.34173583984375 85.1834716796875 C 28.02713966369629 85.1834716796875 11.49999809265137 68.65633392333984 11.49999809265137 48.34173583984375 C 11.49999809265137 28.02713966369629 28.02713966369629 11.49999809265137 48.34173583984375 11.49999809265137 C 68.65633392333984 11.49999809265137 85.1834716796875 28.02713966369629 85.1834716796875 48.34173583984375 C 85.1834716796875 68.65633392333984 68.65633392333984 85.1834716796875 48.34173583984375 85.1834716796875 Z" stroke="none"/>
        <path d="M 48.34173583984375 22.99998474121094 C 34.36823654174805 22.99998474121094 22.99998474121094 34.36823654174805 22.99998474121094 48.34173583984375 C 22.99998474121094 62.31523513793945 34.36823654174805 73.68348693847656 48.34173583984375 73.68348693847656 C 62.31523513793945 73.68348693847656 73.68348693847656 62.31523513793945 73.68348693847656 48.34173583984375 C 73.68348693847656 34.36823654174805 62.31523513793945 22.99998474121094 48.34173583984375 22.99998474121094 M 48.34173583984375 -1.52587890625e-05 C 75.04013061523438 -1.52587890625e-05 96.68348693847656 21.643310546875 96.68348693847656 48.34173583984375 C 96.68348693847656 75.04013061523438 75.04013061523438 96.68348693847656 48.34173583984375 96.68348693847656 C 21.643310546875 96.68348693847656 -1.52587890625e-05 75.04013061523438 -1.52587890625e-05 48.34173583984375 C -1.52587890625e-05 21.643310546875 21.643310546875 -1.52587890625e-05 48.34173583984375 -1.52587890625e-05 Z" stroke="none" fill="#555"/>
      </g>
      <path id="Rectangle_61" data-name="Rectangle 61" d="M0,0H69.82A17.867,17.867,0,0,1,87.687,17.867v0A17.867,17.867,0,0,1,69.82,35.734H0a0,0,0,0,1,0,0V0A0,0,0,0,1,0,0Z" transform="translate(87.645 33.47)" fill="#555"/>
    </g>
    <g id="Group_13" data-name="Group 13" transform="translate(520.864 2562.754)">
      <g id="Path_69-2" data-name="Path 69" transform="translate(0 0)" fill="#fff">
        <path d="M 50.88843154907227 90.27685546875 C 29.16958236694336 90.27685546875 11.50000667572021 72.60728454589844 11.50000667572021 50.88843154907227 C 11.50000667572021 29.16958236694336 29.16958236694336 11.50000667572021 50.88843154907227 11.50000667572021 C 72.60728454589844 11.50000667572021 90.27685546875 29.16958236694336 90.27685546875 50.88843154907227 C 90.27685546875 72.60728454589844 72.60728454589844 90.27685546875 50.88843154907227 90.27685546875 Z" stroke="none"/>
        <path d="M 50.88843154907227 23 C 35.51071929931641 23 23 35.51071929931641 23 50.88843154907227 C 23 66.26614379882813 35.51071929931641 78.77685546875 50.88843154907227 78.77685546875 C 66.26614379882813 78.77685546875 78.77685546875 66.26614379882813 78.77685546875 50.88843154907227 C 78.77685546875 35.51071929931641 66.26614379882813 23 50.88843154907227 23 M 50.88843154907227 0 C 78.99332427978516 0 101.7768630981445 22.78353881835938 101.7768630981445 50.88843154907227 C 101.7768630981445 78.99332427978516 78.99332427978516 101.7768630981445 50.88843154907227 101.7768630981445 C 22.78353881835938 101.7768630981445 0 78.99332427978516 0 50.88843154907227 C 0 22.78353881835938 22.78353881835938 0 50.88843154907227 0 Z" stroke="none" fill="#fd6467"/>
      </g>
      <path id="Rectangle_61-2" data-name="Rectangle 61" d="M0,0H71.073A16.614,16.614,0,0,1,87.687,16.614v0A16.614,16.614,0,0,1,71.073,33.227H0a0,0,0,0,1,0,0V0A0,0,0,0,1,0,0Z" transform="translate(90.192 36.017)" fill="#fd6467"/>
    </g>
  </g>
</svg>
