<svg xmlns="http://www.w3.org/2000/svg" xmlns:xlink="http://www.w3.org/1999/xlink" width="800" height="264" viewBox="0 0 800 264">
  <defs>
    <filter id="Rectangle_53" x="0" y="0" width="800" height="264" filterUnits="userSpaceOnUse">
      <feOffset dx="9" dy="10" input="SourceAlpha"/>
      <feGaussianBlur stdDeviation="6" result="blur"/>
      <feFlood flood-opacity="0.161"/>
      <feComposite operator="in" in2="blur"/>
      <feComposite in="SourceGraphic"/>
    </filter>
    <linearGradient id="linear-gradient" x1="0.489" y1="0.5" x2="0.49" y2="0.5" gradientUnits="objectBoundingBox">
      <stop offset="0" stop-color="#ffdd6b"/>
      <stop offset="1" stop-color="#fff4ce"/>
    </linearGradient>
  </defs>
  <g id="Download_Button" data-name="Download Button" transform="translate(-583 -3494)">
    <g transform="matrix(1, 0, 0, 1, 583, 3494)" filter="url(#Rectangle_53)">
      <rect id="Rectangle_53-2" data-name="Rectangle 53" width="764" height="228" rx="86" transform="translate(9 8)" fill="#f6bd00"/>
    </g>
    <rect id="Rectangle_52" data-name="Rectangle 52" width="746" height="208" rx="86" transform="translate(601 3512)" fill="url(#linear-gradient)"/>
    <g id="Text" transform="translate(45 3)">
      <text id="Link" transform="translate(1004 3570)" fill="#f6bd00" font-size="73" font-family="RobotoSlab-Bold, Roboto Slab" font-weight="700" letter-spacing="-0.071em"><tspan x="12.696" y="76">Link</tspan></text>
      <g id="Github_Logo" data-name="Github Logo" transform="translate(395.996 3509.153)">
        <path id="Path_41" data-name="Path 41" d="M336.613,58.431a46.4,46.4,0,0,0-14.666,90.413c2.319.429,3.17-1.007,3.17-2.232,0-1.105-.043-4.761-.063-8.637-12.906,2.807-15.63-5.474-15.63-5.474-2.11-5.361-5.151-6.788-5.151-6.788-4.209-2.879.317-2.82.317-2.82,4.659.327,7.112,4.781,7.112,4.781,4.138,7.092,10.853,5.042,13.5,3.857a9.882,9.882,0,0,1,2.945-6.2c-10.3-1.172-21.136-5.151-21.136-22.927a17.953,17.953,0,0,1,4.78-12.451c-.482-1.169-2.07-5.887.449-12.278,0,0,3.9-1.246,12.761,4.756a43.984,43.984,0,0,1,23.234,0c8.855-6,12.745-4.756,12.745-4.756,2.525,6.391.936,11.109.455,12.278a17.918,17.918,0,0,1,4.775,12.451c0,17.819-10.853,21.742-21.183,22.89,1.664,1.44,3.147,4.263,3.147,8.591,0,6.207-.054,11.2-.054,12.731,0,1.235.835,2.682,3.187,2.226a46.4,46.4,0,0,0-14.692-90.407Z" fill="#363636" fill-rule="evenodd"/>
        <path id="Path_42" data-name="Path 42" d="M312.718,144.9c-.1.231-.465.3-.8.142s-.526-.466-.416-.7.463-.3.8-.145.529.469.413.7Zm-.571-.423" transform="translate(-4.926 -19.858)" fill="#363636"/>
        <path id="Path_43" data-name="Path 43" d="M315.171,147.475c-.221.2-.654.109-.947-.214a.709.709,0,0,1-.136-.964c.228-.205.648-.109.952.214s.363.756.131.964Zm-.442-.475" transform="translate(-5.5 -20.34)" fill="#363636"/>
        <path id="Path_44" data-name="Path 44" d="M317.543,150.861c-.284.2-.749.013-1.036-.4s-.284-.908.006-1.106.746-.019,1.037.389.283.915-.007,1.116Zm0,0" transform="translate(-6.043 -21.055)" fill="#363636"/>
        <path id="Path_45" data-name="Path 45" d="M320.7,154.239c-.254.28-.8.2-1.192-.178a.892.892,0,0,1-.264-1.185c.257-.28.8-.2,1.2.178s.525.907.254,1.185Zm0,0" transform="translate(-6.696 -21.85)" fill="#363636"/>
        <path id="Path_46" data-name="Path 46" d="M325.1,156.346c-.112.363-.634.528-1.159.373s-.868-.585-.762-.951.633-.538,1.162-.373.868.58.759.95Zm0,0" transform="translate(-7.633 -22.459)" fill="#363636"/>
        <path id="Path_47" data-name="Path 47" d="M330.023,156.809c.013.383-.433.7-.984.707s-1-.3-1.009-.674.436-.7.99-.71,1,.3,1,.677Zm0,0" transform="translate(-8.763 -22.644)" fill="#363636"/>
        <path id="Path_48" data-name="Path 48" d="M334.626,156.071c.066.373-.317.756-.865.858s-1.037-.132-1.105-.5.323-.766.861-.865,1.039.129,1.109.509Zm0,0" transform="translate(-9.833 -22.507)" fill="#363636"/>
      </g>
      <g id="Github_Text" data-name="Github Text" transform="translate(683.092 3490.388)">
        <path id="Path_56" data-name="Path 56" d="M150.666,120.993H132.011a.872.872,0,0,0-.872.872v9.12a.873.873,0,0,0,.872.873h7.277v11.332a22.033,22.033,0,0,1-6.151.557c-5.33,0-12.776-1.948-12.776-18.32s7.753-18.531,15.032-18.531a29.5,29.5,0,0,1,10.742,1.644.878.878,0,0,0,1.045-.856l2.081-8.812a.813.813,0,0,0-.333-.681c-.7-.5-4.981-2.9-15.791-2.9-12.455,0-25.229,5.3-25.229,30.77s14.626,29.267,26.951,29.267c10.2,0,16.4-4.361,16.4-4.361a.749.749,0,0,0,.283-.661V121.865A.872.872,0,0,0,150.666,120.993Z" fill="#363636"/>
        <path id="Path_57" data-name="Path 57" d="M307.838,99.7a.869.869,0,0,0-.865-.877h-10.5a.873.873,0,0,0-.87.877l0,20.3H279.229V99.7a.87.87,0,0,0-.867-.877h-10.5a.872.872,0,0,0-.868.877v54.964a.875.875,0,0,0,.868.88h10.5a.873.873,0,0,0,.867-.88v-23.51H295.6l-.029,23.51a.876.876,0,0,0,.87.88h10.529a.872.872,0,0,0,.867-.88Z" transform="translate(-61.032 -1.354)" fill="#363636"/>
        <g id="Group_6" data-name="Group 6" transform="translate(156.942 98.723)">
          <g id="Group_5" data-name="Group 5" transform="translate(0 0)">
            <path id="Path_58" data-name="Path 58" d="M201.009,107.693a6.773,6.773,0,1,0-6.774,6.843A6.8,6.8,0,0,0,201.009,107.693Z" transform="translate(-187.463 -100.855)" fill="#363636"/>
            <path id="Path_59" data-name="Path 59" d="M200.6,154.276V128.9a.873.873,0,0,0-.869-.876H189.257a1,1,0,0,0-.91.978v36.35c0,1.068.666,1.386,1.527,1.386h9.434c1.035,0,1.289-.508,1.289-1.4Z" transform="translate(-187.802 -111.28)" fill="#363636"/>
          </g>
        </g>
        <path id="Path_60" data-name="Path 60" d="M376.391,128.163H365.968a.874.874,0,0,0-.867.879v26.951a11.779,11.779,0,0,1-6.407,1.937c-3.758,0-4.756-1.705-4.756-5.386v-23.5a.874.874,0,0,0-.867-.879H342.492a.876.876,0,0,0-.868.879v25.283c0,10.931,6.092,13.6,14.473,13.6a24.433,24.433,0,0,0,12.419-3.8,22.156,22.156,0,0,0,.383,2.239.92.92,0,0,0,.767.476l6.73-.03a.875.875,0,0,0,.868-.878l0-36.9A.875.875,0,0,0,376.391,128.163Z" transform="translate(-89.665 -12.609)" fill="#363636"/>
        <path id="Path_61" data-name="Path 61" d="M430.426,115.673a19.6,19.6,0,0,0-9.947,2.642V99.7a.871.871,0,0,0-.867-.877H409.079a.872.872,0,0,0-.868.877v54.964a.875.875,0,0,0,.87.88h7.308a.872.872,0,0,0,.762-.467,17.169,17.169,0,0,0,.444-2.534s4.307,4.081,12.461,4.081c9.573,0,15.062-4.856,15.062-21.8S436.351,115.673,430.426,115.673Zm-4.111,30.969a12.5,12.5,0,0,1-6.068-1.75V127.485a13.889,13.889,0,0,1,5.388-1.748c3.754-.336,7.37.8,7.37,9.752C433,144.931,431.373,146.795,426.315,146.642Z" transform="translate(-115.211 -1.354)" fill="#363636"/>
        <path id="Path_62" data-name="Path 62" d="M240.83,121.174h-7.879l-.012-10.409c0-.394-.2-.591-.659-.591H221.543c-.418,0-.642.184-.642.585v10.757s-5.381,1.3-5.745,1.4a.873.873,0,0,0-.629.838v6.76a.872.872,0,0,0,.868.878H220.9v16.262c0,12.079,8.472,13.265,14.189,13.265a23.972,23.972,0,0,0,6.254-1.029.813.813,0,0,0,.493-.788l.009-7.436a.887.887,0,0,0-.871-.877c-.459,0-1.633.187-2.843.187-3.87,0-5.182-1.8-5.182-4.129s0-15.454,0-15.454h7.88a.873.873,0,0,0,.869-.878V122.05A.871.871,0,0,0,240.83,121.174Z" transform="translate(-40.905 -5.708)" fill="#363636"/>
      </g>
    </g>
  </g>
</svg>
