<svg xmlns="http://www.w3.org/2000/svg" width="306" height="306" viewBox="0 0 306 306">
  <g id="www_Logo" data-name="www Logo" transform="translate(-321.459 -2484)">
    <g id="Path_78" data-name="Path 78" transform="translate(343.285 2505.826)" fill="none">
      <path d="M131.174,0A131.174,131.174,0,1,1,0,131.174,131.174,131.174,0,0,1,131.174,0Z" stroke="none"/>
      <path d="M 131.173828125 26 C 73.18077087402344 26 26 73.18077087402344 26 131.173828125 C 26 189.1668853759766 73.18077087402344 236.34765625 131.173828125 236.34765625 C 189.1668853759766 236.34765625 236.34765625 189.1668853759766 236.34765625 131.173828125 C 236.34765625 73.18077087402344 189.1668853759766 26 131.173828125 26 M 131.173828125 0 C 203.6191253662109 0 262.34765625 58.72853088378906 262.34765625 131.173828125 C 262.34765625 203.6191253662109 203.6191253662109 262.34765625 131.173828125 262.34765625 C 58.72853088378906 262.34765625 0 203.6191253662109 0 131.173828125 C 0 58.72853088378906 58.72853088378906 0 131.173828125 0 Z" stroke="none" fill="#deedfe"/>
    </g>
    <g id="Path_77" data-name="Path 77" transform="translate(321.459 2484)" fill="none">
      <path d="M153,0A153,153,0,1,1,0,153,153,153,0,0,1,153,0Z" stroke="none"/>
      <path d="M 153 26 C 82.97193908691406 26 26 82.97193908691406 26 153 C 26 223.0280609130859 82.97193908691406 280 153 280 C 223.0280609130859 280 280 223.0280609130859 280 153 C 280 82.97193908691406 223.0280609130859 26 153 26 M 153 0 C 237.4995727539063 0 306 68.50044250488281 306 153 C 306 237.4995727539063 237.4995727539063 306 153 306 C 68.50044250488281 306 0 237.4995727539063 0 153 C 0 68.50044250488281 68.50044250488281 0 153 0 Z" stroke="none" fill="#4993c4"/>
    </g>
    <text id="WWW" transform="translate(353.459 2585)" fill="#99c9ff" font-size="86" font-family="RobotoSlab-Bold, Roboto Slab" font-weight="700" letter-spacing="-0.071em"><tspan x="2.893" y="90">WWW</tspan></text>
  </g>
</svg>
