<svg xmlns="http://www.w3.org/2000/svg" width="250" height="3092.852" viewBox="0 0 250 3092.852">
  <g id="Network" transform="translate(-94 -87)">
    <g id="Green_Line" data-name="Green Line" transform="translate(310 1246.361)">
      <circle id="Ellipse_9" data-name="Ellipse 9" cx="17" cy="17" r="17" fill="#b2b2b2"/>
      <circle id="Ellipse_8" data-name="Ellipse 8" cx="17" cy="17" r="17" transform="translate(0 1342.633)" fill="#b2b2b2"/>
      <circle id="Ellipse_10" data-name="Ellipse 10" cx="17" cy="17" r="17" transform="translate(0 602.487)" fill="#b2b2b2"/>
      <path id="Path_6" data-name="Path 6" d="M0,0H12V1318.633H0Z" transform="translate(11 32)" fill="#b2b2b2"/>
    </g>
    <g id="Main_Line" data-name="Main Line" transform="translate(94 87)">
      <circle id="Ellipse_1" data-name="Ellipse 1" cx="17" cy="17" r="17" transform="translate(0 0)" fill="#9b9b9b"/>
      <circle id="Ellipse_3" data-name="Ellipse 3" cx="17" cy="17" r="17" transform="translate(0 3058.852)" fill="#9b9b9b"/>
      <rect id="Rectangle_5" data-name="Rectangle 5" width="12" height="3051.852" transform="translate(11 10)" fill="#9b9b9b"/>
      <path id="Red_Curve" data-name="Red Curve" d="M252.388,2589.714c.565-42.347-71.482-47.767-71.38-74.1s11.62-14.251,11.744,0,70.477,25.657,70.906,74.626S252.388,2589.714,252.388,2589.714Z" transform="translate(-170 -2296)" fill="#787878"/>
      <circle id="Red_Circle" data-name="Red Circle" cx="17" cy="17" r="17" transform="translate(0 196)" fill="#9b9b9b"/>
      <path id="Red_Curve-2" data-name="Red Curve" d="M192.289,2589.714c-.565-42.347,71.482-47.768,71.38-74.1s-11.62-14.251-11.744,0-70.477,25.657-70.906,74.626S192.289,2589.714,192.289,2589.714Z" transform="translate(-170 340.852)" fill="#787878"/>
      <path id="Path_5" data-name="Path 5" d="M327.364,4072.542c-3.225,94.178-130.3,76.761-141.912,127.075-5.515,23.9.062,5.533-.481,8.386-.506,2.524-6.26,23.875,6.609,0,24.512-45.477,149.975-32.252,147.717-135.461S327.364,4072.542,327.364,4072.542Z" transform="translate(-170 -1184.148)" fill="#f9d356"/>
      <circle id="Ellipse_3-2" data-name="Ellipse 3" cx="17" cy="17" r="17" transform="translate(0 2918.852)" fill="#9b9b9b"/>
      <circle id="Ellipse_3-3" data-name="Ellipse 3" cx="17" cy="17" r="17" transform="translate(0 3003.852)" fill="#9b9b9b"/>
      <path id="Yellow_Curve" data-name="Yellow Curve" d="M252.45,3059.262c47.182,47.329,143.507,37.013,143.507,106.177s12.311,62.663,12.625-5.872-130.353-72.954-146.072-111.623S252.45,3059.262,252.45,3059.262Z" transform="translate(-240 -2931)" fill="#505050"/>
      <path id="Yellow_Curve_Bot_" data-name="Yellow Curve (Bot)" d="M252.45,3189.087c47.182-47.329,144.931-38.041,144.931-107.2s10.375-62.248,10.689,6.288-129.84,73.566-145.559,112.235S252.45,3189.087,252.45,3189.087Z" transform="translate(-240 -2204.145)" fill="#505050"/>
      <path id="Blue_Curve" data-name="Blue Curve" d="M155,729.223c.359,30.764.855,67.73,74.54,69.715s71.2,67.482,71.2,85.594,10.668,38.455,11.909,0-6.451-95.517-83.112-97.006-61.528-46.89-61.776-58.3c-.071-3.253-3.627-.464-5.414-.854-3.441-.793-7.35.854-7.35.854l38.325-4.377h0" transform="translate(-144 74.031)" fill="#f9d356"/>
      <circle id="Blue_Circle" data-name="Blue Circle" cx="17" cy="17" r="17" transform="translate(0 785.754)" fill="#9b9b9b"/>
      <circle id="Yellow_Circle" data-name="Yellow Circle" cx="17" cy="17" r="17" transform="translate(0 984.048)" fill="#9b9b9b"/>
      <circle id="Ellipse_2" data-name="Ellipse 2" cx="17" cy="17" r="17" transform="translate(0 98)" fill="#9b9b9b"/>
    </g>
    <g id="Red_Line" data-name="Red Line" transform="translate(165 357.968)">
      <circle id="Ellipse_1-2" data-name="Ellipse 1" cx="17" cy="17" r="17" transform="translate(0 0)" fill="#787878"/>
      <circle id="Ellipse_5" data-name="Ellipse 5" cx="17" cy="17" r="17" transform="translate(0 2559.884)" fill="#787878"/>
      <path id="Path_16" data-name="Path 16" d="M0,0H12V2535.884H0Z" transform="translate(11 27)" fill="#787878"/>
      <path id="Green_Curve" data-name="Green Curve" d="M252.45,3059.262c47.182,47.329,143.507,37.013,143.507,106.177s12.311,62.663,12.625-5.872-130.353-72.954-146.072-111.623S252.45,3059.262,252.45,3059.262Z" transform="translate(-240 -2257.888)" fill="#b2b2b2"/>
      <path id="Green_Curve_Bot_" data-name="Green Curve (Bot)" d="M252.45,3189.087c47.182-47.329,144.931-38.041,144.931-107.2s10.375-62.248,10.689,6.288-129.84,73.566-145.559,112.235S252.45,3189.087,252.45,3189.087Z" transform="translate(-240 -827.116)" fill="#b2b2b2"/>
      <circle id="Ellipse_7" data-name="Ellipse 7" cx="17" cy="17" r="17" transform="translate(0 2359.157)" fill="#787878"/>
      <circle id="Ellipse_6" data-name="Ellipse 6" cx="17" cy="17" r="17" transform="translate(0 771.044)" fill="#787878"/>
    </g>
    <g id="Yellow_Line" data-name="Yellow Line" transform="translate(240 314.968)">
      <circle id="Ellipse_1-3" data-name="Ellipse 1" cx="17" cy="17" r="17" fill="#505050"/>
      <circle id="Ellipse_11" data-name="Ellipse 11" cx="17" cy="17" r="17" transform="translate(0 600.238)" fill="#505050"/>
      <path id="Path_17" data-name="Path 17" d="M0,0H12V585.695H0Z" transform="translate(11 29)" fill="#505050"/>
    </g>
    <g id="Blue_Line" data-name="Blue Line" transform="translate(240 1013.92)">
      <circle id="Ellipse_1-4" data-name="Ellipse 1" cx="17" cy="17" r="17" fill="#f9d356"/>
      <circle id="Ellipse_5-2" data-name="Ellipse 5" cx="17" cy="17" r="17" transform="translate(0 1961.361)" fill="#f9d356"/>
      <path id="Path_9" data-name="Path 9" d="M0,0H12V1963.361H0Z" transform="translate(11 10)" fill="#f9d356"/>
    </g>
  </g>
</svg>
